<svg version="1.1" xmlns="http://www.w3.org/2000/svg" viewBox="0 0 761.8166746092063 475.3746312398996" width="761.8166746092063" height="475.3746312398996" filter="invert(93%) hue-rotate(180deg)">
  <!-- svg-source:excalidraw -->
  
  <defs>
    <style class="style-fonts">
      @font-face {
        font-family: "Virgil";
        src: url("https://excalidraw.com/Virgil.woff2");
      }
      @font-face {
        font-family: "Cascadia";
        src: url("https://excalidraw.com/Cascadia.woff2");
      }
      @font-face {
        font-family: "Assistant";
        src: url("https://excalidraw.com/Assistant-Regular.woff2");
      }
    </style>
    
  </defs>
  <g stroke-linecap="round" transform="translate(11.618518287002871 12.6661799537859) rotate(359.58542127656756 369.2898190176003 225.0211356661639)"><path d="M0 0 C192.1 3.06, 384.43 2.1, 738.58 0 M0 0 C244.63 -2.56, 488.99 -3.16, 738.58 0 M738.58 0 C738.48 132.62, 739.79 264.91, 738.58 450.04 M738.58 0 C737.19 149.85, 737.62 299.95, 738.58 450.04 M738.58 450.04 C503 447.44, 266.05 447.07, 0 450.04 M738.58 450.04 C550.9 448.91, 364.14 448.94, 0 450.04 M0 450.04 C2.28 313.77, 1.41 177.88, 0 0 M0 450.04 C-1.76 285.58, -1.76 121.6, 0 0" stroke="#2f9e44" stroke-width="1" fill="none"></path></g><g stroke-linecap="round" transform="translate(68.27014354270312 107.43187337416045) rotate(359.58542127656756 125.72852446016338 25.96236831268778)"><path d="M12.98 0 C59.01 -2.14, 107.39 0.73, 238.48 0 M12.98 0 C103.41 -2.25, 192.6 -1.48, 238.48 0 M238.48 0 C245.95 -1.37, 251.47 5.68, 251.46 12.98 M238.48 0 C246.36 0.77, 249.96 5.75, 251.46 12.98 M251.46 12.98 C251.08 21.33, 250.01 27.36, 251.46 38.94 M251.46 12.98 C250.5 21.33, 252.23 30.12, 251.46 38.94 M251.46 38.94 C249.68 49.26, 248.15 53.71, 238.48 51.92 M251.46 38.94 C251.54 45.52, 247.23 52.68, 238.48 51.92 M238.48 51.92 C165.31 55.13, 90.19 53.49, 12.98 51.92 M238.48 51.92 C183.67 51.91, 127.36 52.28, 12.98 51.92 M12.98 51.92 C4.34 53.66, 0.83 48.25, 0 38.94 M12.98 51.92 C4.97 50.75, -2 48.81, 0 38.94 M0 38.94 C1.58 31.13, 1.71 21.77, 0 12.98 M0 38.94 C0.9 30.39, 0.32 20.75, 0 12.98 M0 12.98 C1.01 5.57, 4.21 -0.6, 12.98 0 M0 12.98 C-2.29 5.91, 2.45 1.7, 12.98 0" stroke="#6741d9" stroke-width="1" fill="none"></path></g><g stroke-linecap="round" transform="translate(448.011059623343 43.959832625795414) rotate(359.58542127656756 132.20063404263863 33.65367794829781)"><path d="M16.83 0 C96.49 3.04, 176.77 2.66, 247.57 0 M16.83 0 C106.26 1.47, 195.28 0.67, 247.57 0 M247.57 0 C258.8 1.35, 263.74 6.28, 264.4 16.83 M247.57 0 C257.29 1.43, 264.56 4.83, 264.4 16.83 M264.4 16.83 C262.99 28.53, 265.14 42.56, 264.4 50.48 M264.4 16.83 C264.98 23.35, 263.23 31.69, 264.4 50.48 M264.4 50.48 C265.42 63.49, 258.86 65.5, 247.57 67.31 M264.4 50.48 C264.5 62.45, 259.47 65.98, 247.57 67.31 M247.57 67.31 C156 68.48, 62.98 68.47, 16.83 67.31 M247.57 67.31 C180.36 68.13, 112.75 68.36, 16.83 67.31 M16.83 67.31 C6.44 67.96, 0.56 60.68, 0 50.48 M16.83 67.31 C3.61 68.52, 0.56 63.32, 0 50.48 M0 50.48 C1.6 37.77, 0.36 25.45, 0 16.83 M0 50.48 C-0.01 41.42, 0.22 34.8, 0 16.83 M0 16.83 C-0.12 5.01, 3.62 1.38, 16.83 0 M0 16.83 C-1.88 7.31, 3.46 0.65, 16.83 0" stroke="#e8590c" stroke-width="1" fill="none"></path></g><g stroke-linecap="round" transform="translate(96.97935475193765 223.69294694012152) rotate(359.58542127656756 111.88413812214631 33.653677948297826)"><path d="M16.83 0 C61.36 -0.35, 103.71 -0.34, 206.94 0 M16.83 0 C61.12 -1.17, 106.59 0.18, 206.94 0 M206.94 0 C217.49 0.67, 222.46 6.85, 223.77 16.83 M206.94 0 C218.32 -0.78, 225.93 5.27, 223.77 16.83 M223.77 16.83 C224.33 26.8, 221.71 36.61, 223.77 50.48 M223.77 16.83 C223.17 26.19, 224.57 34.79, 223.77 50.48 M223.77 50.48 C223.84 59.89, 218.25 67.96, 206.94 67.31 M223.77 50.48 C224.44 60.37, 220.41 68.8, 206.94 67.31 M206.94 67.31 C134.31 66.54, 63.65 68.94, 16.83 67.31 M206.94 67.31 C146.86 69.3, 87.18 68.76, 16.83 67.31 M16.83 67.31 C6.17 66.29, -1.74 62.75, 0 50.48 M16.83 67.31 C6.17 68.93, 1.55 63.72, 0 50.48 M0 50.48 C0.34 39.08, -1.48 29.98, 0 16.83 M0 50.48 C0.41 40.72, -0.15 29.42, 0 16.83 M0 16.83 C-1.99 6.98, 3.98 1.48, 16.83 0 M0 16.83 C-2.15 6.26, 4.1 1.1, 16.83 0" stroke="#6741d9" stroke-width="1" fill="none"></path></g><g stroke-linecap="round" transform="translate(123.68604333119197 354.3969998957393) rotate(359.58542127656756 79.4912780089144 33.653677948297826)"><path d="M16.83 0 C67.6 0.52, 113.58 -0.97, 142.16 0 M16.83 0 C57.66 1.53, 98.15 1.19, 142.16 0 M142.16 0 C152.07 1.24, 159.12 4.93, 158.98 16.83 M142.16 0 C155.53 -0.34, 159.43 4.04, 158.98 16.83 M158.98 16.83 C157.29 22.61, 158.19 33.55, 158.98 50.48 M158.98 16.83 C159.19 26.15, 158.72 32.79, 158.98 50.48 M158.98 50.48 C159.07 62.35, 153.96 66.15, 142.16 67.31 M158.98 50.48 C161.24 63.19, 155.13 67.67, 142.16 67.31 M142.16 67.31 C106.81 69.05, 72.11 67.54, 16.83 67.31 M142.16 67.31 C97.53 68.72, 52.35 67.88, 16.83 67.31 M16.83 67.31 C3.87 68.36, 0.48 63.11, 0 50.48 M16.83 67.31 C7.16 69.33, 0.69 63.88, 0 50.48 M0 50.48 C-1.27 42.67, 0.06 31.98, 0 16.83 M0 50.48 C-0.23 43.13, -1.17 37.07, 0 16.83 M0 16.83 C-1.63 7.09, 3.74 0.57, 16.83 0 M0 16.83 C-1.5 6.71, 7.65 -0.72, 16.83 0" stroke="#6741d9" stroke-width="1" fill="none"></path></g><g stroke-linecap="round" transform="translate(504.827543724587 202.5801703198409) rotate(359.58542127656756 66.28099290120883 24.123834368383214)"><path d="M12.06 0 C50.8 -0.86, 92.6 -1.94, 120.5 0 M12.06 0 C36.84 -0.4, 61.63 -0.11, 120.5 0 M120.5 0 C128.68 -0.67, 134.44 3.73, 132.56 12.06 M120.5 0 C128.99 -1.56, 130.78 4.93, 132.56 12.06 M132.56 12.06 C131.41 20.1, 131.35 22.89, 132.56 36.19 M132.56 12.06 C132.72 20.4, 132.73 30.87, 132.56 36.19 M132.56 36.19 C133.15 43.07, 130.5 49.54, 120.5 48.25 M132.56 36.19 C134.32 44.59, 128.1 47.02, 120.5 48.25 M120.5 48.25 C90.45 49.82, 60.95 49.35, 12.06 48.25 M120.5 48.25 C78.86 48.09, 35.78 49.13, 12.06 48.25 M12.06 48.25 C4.5 49.66, 1.35 45.99, 0 36.19 M12.06 48.25 C4.71 50.43, -0.39 44.98, 0 36.19 M0 36.19 C0.31 29.86, -1.67 23.43, 0 12.06 M0 36.19 C-0.98 28.13, -0.8 19.44, 0 12.06 M0 12.06 C-1.87 4.59, 2.71 0.96, 12.06 0 M0 12.06 C2.04 3.3, 3.42 2.18, 12.06 0" stroke="#1971c2" stroke-width="1" fill="none"></path></g><g stroke-linecap="round"><g transform="translate(183.60986709179662 104.16748855821439) rotate(359.58542127656756 133.16798531369915 -13.653887335467516)"><path d="M-0.06 0.31 C8.64 -3.65, 8.63 -20.03, 53.03 -24.49 C97.43 -28.96, 230.86 -26.1, 266.34 -26.5 M-1.56 -0.57 C7.46 -4.33, 10.85 -18.75, 55.37 -23.39 C99.9 -28.03, 230.48 -28.05, 265.58 -28.42" stroke="#e03131" stroke-width="1" fill="none"></path></g><g transform="translate(183.60986709179662 104.16748855821439) rotate(359.58542127656756 133.16798531369915 -13.653887335467516)"><path d="M242.15 -19.7 C251.38 -24.09, 258.15 -26.11, 265.58 -28.42 M242.15 -19.7 C250.14 -22.36, 259.47 -26.52, 265.58 -28.42" stroke="#e03131" stroke-width="1" fill="none"></path></g><g transform="translate(183.60986709179662 104.16748855821439) rotate(359.58542127656756 133.16798531369915 -13.653887335467516)"><path d="M242.03 -36.8 C251.19 -34.87, 258.01 -30.58, 265.58 -28.42 M242.03 -36.8 C250 -33.18, 259.38 -31.05, 265.58 -28.42" stroke="#e03131" stroke-width="1" fill="none"></path></g></g><mask></mask><g stroke-linecap="round"><g transform="translate(205.0869223563795 223.11574775348532) rotate(359.58542127656756 1.8113346566809128 -30.681757948631557)"><path d="M-0.71 -0.82 C-0.41 -3.99, 1.05 -8.67, 1.71 -18.69 C2.36 -28.72, 3.03 -53.98, 3.22 -60.96 M1.12 1.36 C1.26 -2.17, 0.58 -9.65, 0.76 -20.39 C0.95 -31.13, 1.93 -56.03, 2.25 -63.1" stroke="#9c36b5" stroke-width="1" fill="none"></path></g><g transform="translate(205.0869223563795 223.11574775348532) rotate(359.58542127656756 1.8113346566809128 -30.681757948631557)"><path d="M8.6 -43.13 C5.31 -49.04, 6.15 -55.6, 2.25 -63.1 M8.6 -43.13 C6.68 -50.08, 5.43 -56.55, 2.25 -63.1" stroke="#9c36b5" stroke-width="1" fill="none"></path></g><g transform="translate(205.0869223563795 223.11574775348532) rotate(359.58542127656756 1.8113346566809128 -30.681757948631557)"><path d="M-5.72 -43.72 C-4.79 -49.37, 0.27 -55.76, 2.25 -63.1 M-5.72 -43.72 C-2.87 -50.56, 0.65 -56.83, 2.25 -63.1" stroke="#9c36b5" stroke-width="1" fill="none"></path></g></g><mask></mask><g stroke-linecap="round"><g transform="translate(216.07362636425233 352.6390361323256) rotate(359.58542127656756 0.5850771053719654 -30.269380507686776)"><path d="M0.01 0.81 C0.25 -9.08, 0.71 -50.04, 0.77 -60.14 M-1.45 0.19 C-1.33 -10, -1.11 -51.73, -0.39 -62.05" stroke="#9c36b5" stroke-width="1" fill="none"></path></g><g transform="translate(216.07362636425233 352.6390361323256) rotate(359.58542127656756 0.5850771053719654 -30.269380507686776)"><path d="M7.39 -38.29 C7.03 -44.68, 4.47 -51.04, -0.39 -62.05 M7.39 -38.29 C5.5 -47.07, 1.94 -56.2, -0.39 -62.05" stroke="#9c36b5" stroke-width="1" fill="none"></path></g><g transform="translate(216.07362636425233 352.6390361323256) rotate(359.58542127656756 0.5850771053719654 -30.269380507686776)"><path d="M-9.7 -38.85 C-5.95 -45.1, -4.39 -51.33, -0.39 -62.05 M-9.7 -38.85 C-5.41 -47.37, -2.78 -56.3, -0.39 -62.05" stroke="#9c36b5" stroke-width="1" fill="none"></path></g></g><mask></mask><g stroke-linecap="round"><g transform="translate(573.3781489732833 112.34378459159659) rotate(359.58542127656756 -1.887617533857508 41.45574394414614)"><path d="M-0.4 0.4 C-0.81 5.66, -1.93 18.67, -2.48 32.35 C-3.03 46.04, -3.66 74.11, -3.69 82.51 M1.59 -0.44 C1.56 4.41, 0.83 16.61, -0.17 30.62 C-1.18 44.63, -3.53 74.76, -4.42 83.61" stroke="#2f9e44" stroke-width="1" fill="none"></path></g><g transform="translate(573.3781489732833 112.34378459159659) rotate(359.58542127656756 -1.887617533857508 41.45574394414614)"><path d="M-10.88 59.46 C-8.11 65.44, -5.59 74.14, -4.42 83.61 M-10.88 59.46 C-8.74 65.22, -7.98 72.73, -4.42 83.61" stroke="#2f9e44" stroke-width="1" fill="none"></path></g><g transform="translate(573.3781489732833 112.34378459159659) rotate(359.58542127656756 -1.887617533857508 41.45574394414614)"><path d="M6.16 60.96 C3.8 66.43, 1.19 74.68, -4.42 83.61 M6.16 60.96 C3.75 66.29, -0.04 73.4, -4.42 83.61" stroke="#2f9e44" stroke-width="1" fill="none"></path></g></g><mask></mask><g transform="translate(74.63653879144073 114.27283376167901) rotate(359.58542127656756 119.36212921142578 19.12140792516921)"><text x="119.36212921142578" y="26.800565347917164" font-family="Virgil, Segoe UI Emoji" font-size="30.594252680270735px" fill="#6741d9" text-anchor="middle" style="white-space: pre;" direction="ltr" dominant-baseline="alphabetic">livebox exporter</text></g><g transform="translate(476.6645897841457 58.49210264892402) rotate(359.58542127656756 103.54710388183588 19.12140792516921)"><text x="103.54710388183594" y="26.800565347917164" font-family="Virgil, Segoe UI Emoji" font-size="30.594252680270735px" fill="#e8590c" text-anchor="middle" style="white-space: pre;" direction="ltr" dominant-baseline="alphabetic">livebox router</text></g><g transform="translate(124.09863844293164 238.22521696325012) rotate(359.58542127656756 84.76485443115234 19.121407925169223)"><text x="84.76485443115234" y="26.800565347917164" font-family="Virgil, Segoe UI Emoji" font-size="30.594252680270735px" fill="#6741d9" text-anchor="middle" style="white-space: pre;" direction="ltr" dominant-baseline="alphabetic">Prometheus</text></g><g transform="translate(139.35132494118056 368.92926991886793) rotate(359.58542127656756 63.82599639892575 19.121407925169223)"><text x="63.82599639892578" y="26.800565347917164" font-family="Virgil, Segoe UI Emoji" font-size="30.594252680270735px" fill="#6741d9" text-anchor="middle" style="white-space: pre;" direction="ltr" dominant-baseline="alphabetic">Grafana</text></g><g transform="translate(515.1135567673973 207.5825967630549) rotate(359.58542127656756 55.99497985839844 19.12140792516921)"><text x="55.99497985839844" y="26.800565347917164" font-family="Virgil, Segoe UI Emoji" font-size="30.594252680270735px" fill="#1971c2" text-anchor="middle" style="white-space: pre;" direction="ltr" dominant-baseline="alphabetic">Devices</text></g><g stroke-linecap="round" transform="translate(44.46426475219869 55.24094193281769) rotate(0 159.13671874999997 194.494140625)"><path d="M32 0 C97.96 -0.09, 162.31 0.44, 286.27 0 M32 0 C123.9 -1.29, 216.21 -0.78, 286.27 0 M286.27 0 C308.9 0.52, 318.76 10.39, 318.27 32 M286.27 0 C307.04 1.65, 317.93 11.05, 318.27 32 M318.27 32 C318.07 136.86, 315.94 240.24, 318.27 356.99 M318.27 32 C317.02 128.74, 317.49 224.66, 318.27 356.99 M318.27 356.99 C317.07 379.77, 307.65 389.71, 286.27 388.99 M318.27 356.99 C316.96 380.4, 307.41 389.83, 286.27 388.99 M286.27 388.99 C186.05 389.26, 86.73 390.09, 32 388.99 M286.27 388.99 C207.64 387.84, 127.92 387.16, 32 388.99 M32 388.99 C10.97 388.13, 0.5 377.04, 0 356.99 M32 388.99 C9.34 386.82, 0.68 378.65, 0 356.99 M0 356.99 C-0.18 265.94, 0.03 176.65, 0 32 M0 356.99 C2.57 254.79, 1.42 151.88, 0 32 M0 32 C0.55 9.28, 11.47 0.39, 32 0 M0 32 C0.47 12.83, 11.51 0.6, 32 0" stroke="#1971c2" stroke-width="1" fill="none"></path></g><g transform="translate(65.67809833816574 71.6654775065744) rotate(0 31.179969787597656 12.5)"><text x="0" y="17.52" font-family="Virgil, Segoe UI Emoji" font-size="20px" fill="#1971c2" text-anchor="start" style="white-space: pre;" direction="ltr" dominant-baseline="alphabetic">Device</text></g><g stroke-linecap="round" transform="translate(494.7534033433224 243.43957210882132) rotate(359.58542127656756 66.24884309005853 24.112133024072946)"><path d="M12.06 0 C53.48 0.4, 96.15 -1.47, 120.44 0 M12.06 0 C40.47 0.79, 68.22 -0.01, 120.44 0 M120.44 0 C129.98 -0.72, 132.78 4.65, 132.5 12.06 M120.44 0 C126.43 -0.36, 132.03 3.73, 132.5 12.06 M132.5 12.06 C134.28 20.28, 132.77 28.96, 132.5 36.17 M132.5 12.06 C133.63 18.66, 132.76 23.48, 132.5 36.17 M132.5 36.17 C133.79 43.38, 130.31 46.72, 120.44 48.22 M132.5 36.17 C131.05 44.81, 128.67 47.41, 120.44 48.22 M120.44 48.22 C94.87 47.64, 72.65 47.76, 12.06 48.22 M120.44 48.22 C92.06 46.83, 63.13 47.24, 12.06 48.22 M12.06 48.22 C4.32 49.64, 0.14 45.54, 0 36.17 M12.06 48.22 C3.2 46.85, -0.94 44.38, 0 36.17 M0 36.17 C-1.56 27.69, -1.3 21.55, 0 12.06 M0 36.17 C-0.03 29.35, -0.45 22.09, 0 12.06 M0 12.06 C-1.36 5.32, 3.19 0.49, 12.06 0 M0 12.06 C1.67 5.27, 3.63 1.45, 12.06 0" stroke="#1971c2" stroke-width="1" fill="none"></path></g><g stroke-linecap="round" transform="translate(487.8063817688365 261.9034598280574) rotate(359.58542127656756 66.24884309005853 24.112133024072932)"><path d="M12.06 0 C37.05 1.93, 66.46 1.67, 120.44 0 M12.06 0 C38.25 -0.39, 65.85 -1.29, 120.44 0 M120.44 0 C128.55 -0.07, 132.92 4.16, 132.5 12.06 M120.44 0 C128.42 0.51, 131.58 5.11, 132.5 12.06 M132.5 12.06 C131.65 21.31, 132.02 29.63, 132.5 36.17 M132.5 12.06 C132.26 18.31, 132.26 25.66, 132.5 36.17 M132.5 36.17 C132.58 43.17, 128.37 47.25, 120.44 48.22 M132.5 36.17 C131.65 44.26, 129.69 49.88, 120.44 48.22 M120.44 48.22 C77.91 47.11, 39.16 46.55, 12.06 48.22 M120.44 48.22 C94.06 47.04, 66.96 47.71, 12.06 48.22 M12.06 48.22 C2.79 46.33, -1.44 44.24, 0 36.17 M12.06 48.22 C4.98 50.3, -2.1 46.14, 0 36.17 M0 36.17 C1.97 28.66, 2.02 19.51, 0 12.06 M0 36.17 C-0.87 27.59, 0.75 17.14, 0 12.06 M0 12.06 C-0.34 2.07, 2.75 -0.06, 12.06 0 M0 12.06 C1.75 3.74, 3.79 0.21, 12.06 0" stroke="#1971c2" stroke-width="1" fill="none"></path></g><g stroke-linecap="round" transform="translate(480.59415231026645 279.788108671802) rotate(359.58542127656756 66.24884309005853 24.112133024072932)"><path d="M12.06 0 C39.8 -0.31, 69.02 -1.63, 120.44 0 M12.06 0 C47.2 1.5, 81.3 -0.06, 120.44 0 M120.44 0 C130.13 -0.02, 132.21 4.92, 132.5 12.06 M120.44 0 C130.34 -0.95, 133.08 2.48, 132.5 12.06 M132.5 12.06 C132.46 22.85, 133.17 31.67, 132.5 36.17 M132.5 12.06 C133.13 18.31, 131.9 23.94, 132.5 36.17 M132.5 36.17 C132.62 44.13, 128.47 47.68, 120.44 48.22 M132.5 36.17 C134.08 42.71, 126.95 49.23, 120.44 48.22 M120.44 48.22 C95.31 49.31, 72.31 47.8, 12.06 48.22 M120.44 48.22 C77.24 46.59, 34.81 47.8, 12.06 48.22 M12.06 48.22 C2.44 47.13, -1.69 45.16, 0 36.17 M12.06 48.22 C1.98 50.29, -0.89 45.99, 0 36.17 M0 36.17 C-1.85 29.72, -0.39 19.27, 0 12.06 M0 36.17 C0.42 30.9, -0.3 24.3, 0 12.06 M0 12.06 C-0.26 4.5, 4.08 0.64, 12.06 0 M0 12.06 C1.78 2.34, 3.32 -1.39, 12.06 0" stroke="#1971c2" stroke-width="1" fill="none"></path></g><g transform="translate(612.5849492213067 409.5631776038839) rotate(359.58542127656756 56.27927445827794 17.50849255124902)"><text x="0" y="24.53990315983061" font-family="Virgil, Segoe UI Emoji" font-size="28.013588081998417px" fill="#2f9e44" text-anchor="start" style="white-space: pre;" direction="ltr" dominant-baseline="alphabetic">HomeLan</text></g><g transform="translate(583.8694054052633 142.5764442762212) rotate(359.58542127656756 13.976773070538457 12.506066108035)"><text x="0" y="17.528502257021866" font-family="Virgil, Segoe UI Emoji" font-size="20.009705772856012px" fill="#2f9e44" text-anchor="start" style="white-space: pre;" direction="ltr" dominant-baseline="alphabetic">lan</text></g><g transform="translate(370.9096209604249 89.89242080474826) rotate(359.58542127656756 18.144795149413028 10.004852886428004)"><text x="0" y="14.022801805617494" font-family="Virgil, Segoe UI Emoji" font-size="16.00776461828481px" fill="#e03131" text-anchor="start" style="white-space: pre;" direction="ltr" dominant-baseline="alphabetic">GET</text></g><g transform="translate(221.31497144082363 185.01410643302944) rotate(0 27.511978149414062 10)"><text x="0" y="14.016" font-family="Virgil, Segoe UI Emoji" font-size="16px" fill="#9c36b5" text-anchor="start" style="white-space: pre;" direction="ltr" dominant-baseline="alphabetic">metrics</text></g><g transform="translate(139.00935761964826 311.9697049948402) rotate(0 27.511978149414062 10)"><text x="0" y="14.016" font-family="Virgil, Segoe UI Emoji" font-size="16px" fill="#9c36b5" text-anchor="start" style="white-space: pre;" direction="ltr" dominant-baseline="alphabetic">metrics</text></g></svg>